<svg xmlns="http://www.w3.org/2000/svg">
    <symbol id="undo" viewBox="0 0 24 24">
        <path d="M3.92399915,11.7649995 C3.77764399,11.9991677 3.4691688,12.0703543 3.23500053,11.9239992
        C3.00083226,11.777644 2.92964568,11.4691688 3.07600085,11.2350005 C4.72258653,8.60046343 7.61021891,7
        10.7169906,7 L11,7 C15.7839371,7 19.7251234,10.7427037 19.9862823,15.4990868 C19.9927927,15.617659
        19.9970334,16.2631224 19.9999986,17.4988002 C20.0006612,17.7749418 19.7773414,17.9993359
        19.5011998,17.9999986 C19.2250582,18.0006612 19.0006641,17.7773414 19.0000014,17.5011998
        C18.9971538,16.3145297 18.9927506,15.6443258 18.9877863,15.5539113 C18.7556998,11.3270125 15.2522496,8
        11,8 L10.7169906,8 C7.95500894,8 5.38784649,9.42284374 3.92399915,11.7649995 Z M8.5,11 C8.77614237,11
        9,11.2238576 9,11.5 C9,11.7761424 8.77614237,12 8.5,12 L3.5,12 C3.22385763,12 3,11.7761424 3,11.5 L3,6.5
        C3,6.22385763 3.22385763,6 3.5,6 C3.77614237,6 4,6.22385763 4,6.5 L4,11 L8.5,11 Z"/>
    </symbol>
    <!-- From https://heroicons.dev/, Copyright Steve Schoger, MIT Licensed -->
    <symbol id="caret" fill="currentColor" viewBox="0 0 20 20">
        <path d="M7.293 14.707a1 1 0 010-1.414L10.586 10 7.293 6.707a1 1 0 011.414-1.414l4 4a1 1 0 010 1.414l-4 4a1
        1 0 01-1.414 0z" clip-rule="evenodd" fill-rule="evenodd" />
    </symbol>
    <symbol id="close" fill="currentColor" viewBox="0 0 20 20">
        <path d="M4.293 4.293a1 1 0 011.414 0L10 8.586l4.293-4.293a1 1 0 111.414 1.414L11.414 10l4.293 4.293a1 1 0
        01-1.414 1.414L10 11.414l-4.293 4.293a1 1 0 01-1.414-1.414L8.586 10 4.293 5.707a1 1 0 010-1.414z"
        clip-rule="evenodd" fill-rule="evenodd"/>
    </symbol>
    <symbol id="fullscreen" fill="none" stroke="currentColor" viewBox="0 0 24 24">
        <path d="M4 8V4m0 0h4M4 4l5 5m11-1V4m0 0h-4m4 0l-5 5M4 16v4m0 0h4m-4 0l5-5m11 5l-5-5m5 5v-4m0 4h-4"
        stroke-linecap="round" stroke-linejoin="round" stroke-width="2"/>
    </symbol>
    <symbol id="settings" fill="none" stroke="currentColor" viewBox="0 0 24 24">
        <path d="M12 6V4m0 2a2 2 0 100 4m0-4a2 2 0 110 4m-6 8a2 2 0 100-4m0 4a2 2 0 110-4m0 4v2m0-6V4m6 6v10m6-2a2
        2 0 100-4m0 4a2 2 0 110-4m0 4v2m0-6V4" stroke-linecap="round" stroke-linejoin="round" stroke-width="2"/>
    </symbol>
    <symbol id="help" fill="currentColor" viewBox="0 0 20 20">
        <path d="M18 10a8 8 0 11-16 0 8 8 0 0116 0zm-8-3a1 1 0 00-.867.5 1 1 0 11-1.731-1A3 3 0 0113 8a3.001 3.001
        0 01-2 2.83V11a1 1 0 11-2 0v-1a1 1 0 011-1 1 1 0 100-2zm0 8a1 1 0 100-2 1 1 0 000 2z"
        clip-rule="evenodd" fill-rule="evenodd"/>
    </symbol>
</svg>