<svg xmlns="http://www.w3.org/2000/svg">
    <symbol id="redo" stroke="currentColor" viewBox="0 0 24 24">
        <path d="M21 9V15M21 15H15M21 15L18.3597 12.6307C16.9787 11.2521 15.187 10.3596 13.2547 10.0878C11.3223
        9.81593 9.35394 10.1794 7.64613 11.1234C5.93831 12.0675 4.58359 13.5409 3.78606 15.3218"
        stroke-linecap="round" stroke-linejoin="round"/>
    </symbol>
    <!-- Modified from https://www.svgrepo.com/svg/316467/undo -->
    <symbol id="undo" fill="none" stroke="currentColor" viewBox="0 0 24 24">
        <path d="M3 9V15M3 15H9M3 15L5.64028 12.6307C7.02129 11.2521 8.81296 10.3596 10.7453 10.0878C12.6777
        9.81593 14.6461 10.1794 16.3539 11.1234C18.0617 12.0675 19.4164 13.5409 20.2139 15.3218"
        stroke-linecap="round" stroke-linejoin="round"/>
    </symbol>
    <!-- From https://heroicons.dev/, Copyright Steve Schoger, MIT Licensed -->
    <symbol id="caret" fill="currentColor" viewBox="0 0 20 20">
        <path d="M7.293 14.707a1 1 0 010-1.414L10.586 10 7.293 6.707a1 1 0 011.414-1.414l4 4a1 1 0 010 1.414l-4 4a1
        1 0 01-1.414 0z" clip-rule="evenodd" fill-rule="evenodd" />
    </symbol>
    <symbol id="close" fill="currentColor" viewBox="0 0 20 20">
        <path d="M4.293 4.293a1 1 0 011.414 0L10 8.586l4.293-4.293a1 1 0 111.414 1.414L11.414 10l4.293 4.293a1 1 0
        01-1.414 1.414L10 11.414l-4.293 4.293a1 1 0 01-1.414-1.414L8.586 10 4.293 5.707a1 1 0 010-1.414z"
        clip-rule="evenodd" fill-rule="evenodd"/>
    </symbol>
    <symbol id="fullscreen" fill="none" stroke="currentColor" viewBox="0 0 24 24">
        <path d="M4 8V4m0 0h4M4 4l5 5m11-1V4m0 0h-4m4 0l-5 5M4 16v4m0 0h4m-4 0l5-5m11 5l-5-5m5 5v-4m0 4h-4"
        stroke-linecap="round" stroke-linejoin="round" stroke-width="2"/>
    </symbol>
    <symbol id="settings" fill="none" stroke="currentColor" viewBox="0 0 24 24">
        <path d="M12 6V4m0 2a2 2 0 100 4m0-4a2 2 0 110 4m-6 8a2 2 0 100-4m0 4a2 2 0 110-4m0 4v2m0-6V4m6 6v10m6-2a2
        2 0 100-4m0 4a2 2 0 110-4m0 4v2m0-6V4" stroke-linecap="round" stroke-linejoin="round" stroke-width="2"/>
    </symbol>
    <symbol id="help" fill="currentColor" viewBox="0 0 20 20">
        <path d="M18 10a8 8 0 11-16 0 8 8 0 0116 0zm-8-3a1 1 0 00-.867.5 1 1 0 11-1.731-1A3 3 0 0113 8a3.001 3.001
        0 01-2 2.83V11a1 1 0 11-2 0v-1a1 1 0 011-1 1 1 0 100-2zm0 8a1 1 0 100-2 1 1 0 000 2z"
        clip-rule="evenodd" fill-rule="evenodd"/>
    </symbol>
</svg>